<?xml version="1.0" encoding="utf-8"?>
<svg version="1.1" id="sl-logo" xmlns="http://www.w3.org/2000/svg" xmlns:xlink="http://www.w3.org/1999/xlink" x="0px"
	 y="0px" viewBox="46.4 23.3 200 56.3" enable-background="new 46.4 23.3 200 56.3" xml:space="preserve">
<path id="fill-1" fill="#0C1C4A" d="M69.5,61.1c-1-0.9-2.2-1.6-3.6-2.3c-1.4-0.7-3-1.3-4.8-2c-1.3-0.5-2.5-0.9-3.5-1.4
	c-1-0.4-1.8-0.9-2.4-1.4c-0.7-0.5-1.1-1.1-1.4-1.7s-0.5-1.3-0.5-2.2c0-1.6,0.7-2.8,2.1-3.5c1.4-0.7,3-1.1,4.9-1.1
	c2.2,0,4,0.2,5.6,0.6c1.5,0.4,2.7,0.8,3.4,1.2v-6.3c0,0-0.2-0.1-0.4-0.1c-0.7-0.2-1.5-0.4-2.4-0.5c-0.9-0.2-1.9-0.3-3-0.4
	s-2.1-0.2-3.2-0.2c-4.2,0-7.7,1-10.1,2.9c-2.5,2-3.7,4.6-3.7,8c0,1.7,0.3,3.1,0.9,4.3c0.6,1.2,1.3,2.1,2.3,3c1,0.8,2.1,1.5,3.4,2.1
	s2.7,1.2,4.2,1.8c3,1.2,5.1,2.3,6.5,3.3s2,2.3,2,3.9s-0.7,2.7-2,3.5c-1.3,0.7-3.4,1.1-6.2,1.1c-2.8,0-4.7-0.2-6.8-0.9
	c-1.7-0.6-2.9-1-3.7-1.3v6.3c0.6,0.2,1.7,0.5,2.6,0.8c2.1,0.6,4.5,0.8,7.9,0.8c4.8,0,8.5-0.9,11.1-2.7c2.6-1.8,3.9-4.4,3.9-8
	c0-1.8-0.3-3.3-0.8-4.5C71.2,63,70.5,62,69.5,61.1z M152.6,73c-0.9-0.3-1.6-1-2.2-1.7s-1-1.7-1.3-2.9c-0.3-1.2-0.4-2.8-0.4-4.7V46.2
	H160v-5.6h-11.3V28.6l-6.8,1.6v33.6c0,2.5,0.2,4.7,0.6,6.7c0.4,1.9,1.1,3.6,2.1,4.9c1,1.3,2.3,2.4,3.9,3c1.8,0.8,6.5,1.7,11.3,0.6
	V73C156,73.9,153.5,73.3,152.6,73z M132.6,40c-0.7-0.1-1.4-0.1-2-0.1c-2.9,0-5.6,0.3-8,0.8c-2.4,0.5-4.3,1-6,1.6v36.3h6.8V46.8
	c0.4-0.1,1.2-0.3,2.4-0.5c1.2-0.3,2.5-0.4,3.7-0.4c1.9,0,3.5,0.1,4.7,0.4c1.2,0.3,2.1,0.5,2.6,0.7v-6.2c-0.6-0.1-1.4-0.3-2.2-0.4
	C134.1,40.1,133.3,40,132.6,40z M101.7,69.8c-1.9,2.5-4.5,3.7-7.9,3.7s-6-1.2-7.9-3.7S83,63.9,83,59.6c0-4.2,1-7.7,2.9-10.2
	s4.5-3.7,7.9-3.7s6,1.2,7.9,3.7s2.9,5.8,2.9,10.2S103.6,67.2,101.7,69.8z M106.6,45.1c-1.6-1.7-3.4-3.1-5.6-4
	c-2.2-0.9-4.5-1.4-7.2-1.4c-2.6,0-4.9,0.5-7.2,1.4c-2.2,0.9-4,2.3-5.6,4c-1.6,1.7-2.8,3.8-3.6,6.4c-0.9,2.4-1.3,5.1-1.3,8.2
	s0.4,5.7,1.3,8.2c0.9,2.3,2.1,4.4,3.7,6.3c1.6,1.7,3.4,3.1,5.6,4s4.5,1.4,7.2,1.4c2.6,0,4.9-0.5,7.2-1.4s4-2.3,5.6-4
	c1.6-1.7,2.8-3.8,3.6-6.3c0.9-2.4,1.3-5.1,1.3-8.2c0-2.9-0.4-5.6-1.3-8.2C109.4,49,108.2,47,106.6,45.1L106.6,45.1z"/>
<path id="fill-2" fill="#20C5E5" d="M187.8,27.5c-1.1,0-2,0.4-2.8,1.1c-0.8,0.7-1.1,1.7-1.1,2.9c0,1.2,0.4,2.2,1.1,2.9
	c0.8,0.7,1.7,1.1,2.8,1.1s2-0.4,2.8-1.1c0.8-0.7,1.1-1.7,1.1-2.9c0-1.2-0.4-2.2-1.1-2.9C189.9,27.9,188.9,27.5,187.8,27.5z M239,73
	c-0.9-0.3-1.6-1-2.2-1.7c-0.6-0.7-1-1.7-1.3-2.9c-0.3-1.2-0.4-2.8-0.4-4.7V46.2h11.3v-5.6h-11.3V28.8l-6.8,1.2v33.8
	c0,2.5,0.2,4.7,0.6,6.7c0.4,1.9,1.1,3.6,2.1,4.9c1,1.3,2.3,2.4,3.9,3c1.8,0.8,6.5,1.7,11.3,0.6V73C242.5,73.9,239.9,73.3,239,73z
	 M220.8,61.1c-1-0.9-2.2-1.6-3.6-2.3c-1.4-0.7-3-1.3-4.8-2c-1.3-0.5-2.5-0.9-3.5-1.4c-1-0.4-1.8-0.9-2.4-1.4
	c-0.7-0.5-1.1-1.1-1.4-1.7s-0.5-1.3-0.5-2.2c0-1.6,0.7-2.8,2.1-3.5s3-1.1,4.9-1.1c2.2,0,4,0.2,5.6,0.6c1.5,0.4,2.7,0.8,3.4,1.2v-6.3
	c0,0-0.3-0.1-0.4-0.1c-0.7-0.2-1.5-0.4-2.4-0.5c-0.9-0.2-1.9-0.3-3-0.4s-2.1-0.2-3.2-0.2c-4.2,0-7.7,1-10.1,2.9
	c-2.5,2-3.7,4.6-3.7,8c0,1.7,0.3,3.1,0.9,4.3c0.6,1.2,1.3,2.1,2.3,3c1,0.8,2.1,1.5,3.4,2.1c1.3,0.6,2.7,1.2,4.2,1.8
	c3,1.2,5.1,2.3,6.5,3.3s2,2.3,2,3.9s-0.7,2.7-2,3.5c-1.3,0.7-3.4,1.1-6.2,1.1c-2.8,0-4.7-0.2-6.8-0.9c-1.7-0.6-2.9-1-3.7-1.3v6.3
	c0.6,0.2,1.7,0.5,2.6,0.8c2.1,0.6,4.5,0.8,7.9,0.8c4.8,0,8.5-0.9,11.1-2.7c2.6-1.8,3.9-4.4,3.9-8c0-1.8-0.3-3.3-0.8-4.5
	C222.6,63,221.8,62,220.8,61.1z M184.5,78.5h6.8V40.6h-6.8V78.5z M173.6,72.1c-0.4-0.4-0.7-1-0.9-1.7s-0.3-1.6-0.3-2.7V23.3
	l-6.8,1.5v43.9c0,3.6,0.9,6.3,2.6,8c1.7,1.7,5.1,2.7,9.9,2.8v-5.8c-1.1-0.1-2-0.3-2.7-0.5C174.6,72.9,174,72.5,173.6,72.1
	L173.6,72.1z"/>
</svg>
